<svg xmlns="http://www.w3.org/2000/svg" xmlns:xlink="http://www.w3.org/1999/xlink" width="100" zoomAndPan="magnify" viewBox="0 0 75 74.999997" height="100" preserveAspectRatio="xMidYMid meet" version="1.0"><defs><g/></defs><g fill="#7fc37e" fill-opacity="1"><g transform="translate(1.182027, 44.813372)"><g><path d="M 12.65625 -12.296875 L 7.1875 0 L 5.46875 0 L 0.015625 -12.296875 L 1.75 -12.296875 L 6.359375 -1.828125 L 11.015625 -12.296875 Z M 12.65625 -12.296875 "/></g></g></g><g fill="#7fc37e" fill-opacity="1"><g transform="translate(12.965102, 44.813372)"><g><path d="M 3.90625 -9.890625 C 4.289062 -10.722656 4.867188 -11.347656 5.640625 -11.765625 C 6.421875 -12.179688 7.378906 -12.390625 8.515625 -12.390625 L 8.515625 -10.78125 L 8.109375 -10.8125 C 6.816406 -10.8125 5.800781 -10.410156 5.0625 -9.609375 C 4.332031 -8.816406 3.96875 -7.703125 3.96875 -6.265625 L 3.96875 0 L 2.3125 0 L 2.3125 -12.296875 L 3.90625 -12.296875 Z M 3.90625 -9.890625 "/></g></g></g><g fill="#7fc37e" fill-opacity="1"><g transform="translate(21.451599, 44.813372)"><g><path d="M 7.34375 0.109375 C 6.15625 0.109375 5.085938 -0.15625 4.140625 -0.6875 C 3.191406 -1.226562 2.441406 -1.972656 1.890625 -2.921875 C 1.347656 -3.867188 1.078125 -4.945312 1.078125 -6.15625 C 1.078125 -7.351562 1.347656 -8.425781 1.890625 -9.375 C 2.441406 -10.332031 3.191406 -11.070312 4.140625 -11.59375 C 5.085938 -12.125 6.15625 -12.390625 7.34375 -12.390625 C 8.53125 -12.390625 9.597656 -12.125 10.546875 -11.59375 C 11.492188 -11.070312 12.238281 -10.332031 12.78125 -9.375 C 13.320312 -8.425781 13.59375 -7.351562 13.59375 -6.15625 C 13.59375 -4.945312 13.320312 -3.867188 12.78125 -2.921875 C 12.238281 -1.972656 11.492188 -1.226562 10.546875 -0.6875 C 9.597656 -0.15625 8.53125 0.109375 7.34375 0.109375 Z M 7.34375 -1.359375 C 8.21875 -1.359375 9 -1.554688 9.6875 -1.953125 C 10.382812 -2.347656 10.925781 -2.910156 11.3125 -3.640625 C 11.707031 -4.378906 11.90625 -5.21875 11.90625 -6.15625 C 11.90625 -7.09375 11.707031 -7.925781 11.3125 -8.65625 C 10.925781 -9.382812 10.382812 -9.945312 9.6875 -10.34375 C 9 -10.75 8.21875 -10.953125 7.34375 -10.953125 C 6.46875 -10.953125 5.679688 -10.75 4.984375 -10.34375 C 4.296875 -9.945312 3.753906 -9.382812 3.359375 -8.65625 C 2.960938 -7.925781 2.765625 -7.09375 2.765625 -6.15625 C 2.765625 -5.21875 2.960938 -4.378906 3.359375 -3.640625 C 3.753906 -2.910156 4.296875 -2.347656 4.984375 -1.953125 C 5.679688 -1.554688 6.46875 -1.359375 7.34375 -1.359375 Z M 7.34375 -1.359375 "/></g></g></g><g fill="#7fc37e" fill-opacity="1"><g transform="translate(35.221984, 44.813372)"><g><path d="M 7.34375 0.109375 C 6.15625 0.109375 5.085938 -0.15625 4.140625 -0.6875 C 3.191406 -1.226562 2.441406 -1.972656 1.890625 -2.921875 C 1.347656 -3.867188 1.078125 -4.945312 1.078125 -6.15625 C 1.078125 -7.351562 1.347656 -8.425781 1.890625 -9.375 C 2.441406 -10.332031 3.191406 -11.070312 4.140625 -11.59375 C 5.085938 -12.125 6.15625 -12.390625 7.34375 -12.390625 C 8.53125 -12.390625 9.597656 -12.125 10.546875 -11.59375 C 11.492188 -11.070312 12.238281 -10.332031 12.78125 -9.375 C 13.320312 -8.425781 13.59375 -7.351562 13.59375 -6.15625 C 13.59375 -4.945312 13.320312 -3.867188 12.78125 -2.921875 C 12.238281 -1.972656 11.492188 -1.226562 10.546875 -0.6875 C 9.597656 -0.15625 8.53125 0.109375 7.34375 0.109375 Z M 7.34375 -1.359375 C 8.21875 -1.359375 9 -1.554688 9.6875 -1.953125 C 10.382812 -2.347656 10.925781 -2.910156 11.3125 -3.640625 C 11.707031 -4.378906 11.90625 -5.21875 11.90625 -6.15625 C 11.90625 -7.09375 11.707031 -7.925781 11.3125 -8.65625 C 10.925781 -9.382812 10.382812 -9.945312 9.6875 -10.34375 C 9 -10.75 8.21875 -10.953125 7.34375 -10.953125 C 6.46875 -10.953125 5.679688 -10.75 4.984375 -10.34375 C 4.296875 -9.945312 3.753906 -9.382812 3.359375 -8.65625 C 2.960938 -7.925781 2.765625 -7.09375 2.765625 -6.15625 C 2.765625 -5.21875 2.960938 -4.378906 3.359375 -3.640625 C 3.753906 -2.910156 4.296875 -2.347656 4.984375 -1.953125 C 5.679688 -1.554688 6.46875 -1.359375 7.34375 -1.359375 Z M 7.34375 -1.359375 "/></g></g></g><g fill="#7fc37e" fill-opacity="1"><g transform="translate(48.992366, 44.813372)"><g><path d="M 17.65625 -12.390625 C 19.195312 -12.390625 20.410156 -11.945312 21.296875 -11.0625 C 22.179688 -10.175781 22.625 -8.867188 22.625 -7.140625 L 22.625 0 L 20.953125 0 L 20.953125 -6.96875 C 20.953125 -8.25 20.644531 -9.222656 20.03125 -9.890625 C 19.414062 -10.566406 18.546875 -10.90625 17.421875 -10.90625 C 16.148438 -10.90625 15.144531 -10.507812 14.40625 -9.71875 C 13.675781 -8.925781 13.3125 -7.835938 13.3125 -6.453125 L 13.3125 0 L 11.65625 0 L 11.65625 -6.96875 C 11.65625 -8.25 11.34375 -9.222656 10.71875 -9.890625 C 10.101562 -10.566406 9.226562 -10.90625 8.09375 -10.90625 C 6.832031 -10.90625 5.828125 -10.507812 5.078125 -9.71875 C 4.335938 -8.925781 3.96875 -7.835938 3.96875 -6.453125 L 3.96875 0 L 2.3125 0 L 2.3125 -12.296875 L 3.90625 -12.296875 L 3.90625 -10.0625 C 4.34375 -10.8125 4.953125 -11.382812 5.734375 -11.78125 C 6.515625 -12.1875 7.410156 -12.390625 8.421875 -12.390625 C 9.453125 -12.390625 10.34375 -12.171875 11.09375 -11.734375 C 11.851562 -11.304688 12.421875 -10.660156 12.796875 -9.796875 C 13.242188 -10.609375 13.890625 -11.242188 14.734375 -11.703125 C 15.585938 -12.160156 16.5625 -12.390625 17.65625 -12.390625 Z M 17.65625 -12.390625 "/></g></g></g></svg>